<svg width="27" height="19" viewBox="0 0 27 19" fill="none" xmlns="http://www.w3.org/2000/svg">
<path d="M9.39337 7.49373H7.59854L9.39337 5.6203L11.1926 7.49373H9.39337Z" fill="#00B9EF"/>
<path d="M9.39337 5.62032L7.59854 3.75125H9.39337H11.1926L9.39337 5.62032Z" fill="#00B9EF"/>
<path d="M11.1926 7.49375L9.39337 5.62032L11.1926 3.75125H11.2755V5.62032V7.49375H11.1926Z" fill="#67C7F2"/>
<path d="M7.51556 7.49375V5.62032V3.75125H7.59854L9.39336 5.62032L7.59854 7.49375H7.51556Z" fill="#67C7F2"/>
<path d="M1.8778 11.2362H0.0829773L1.8778 9.36279L3.67699 11.2362H1.8778Z" fill="#00B9EF"/>
<path d="M1.8778 9.36278L0.0829773 7.49371H1.8778H3.67699L1.8778 9.36278Z" fill="#00B9EF"/>
<path d="M3.677 11.2362L1.87781 9.36278L3.677 7.49371H3.75997V9.36278V11.2362H3.677Z" fill="#67C7F2"/>
<path d="M0 11.2362V9.36278V7.49371H0.0829735L1.8778 9.36278L0.0829735 11.2362H0Z" fill="#67C7F2"/>
<path d="M24.4288 11.2362H22.6296L24.4288 9.36279L26.2237 11.2362H24.4288Z" fill="#00B9EF"/>
<path d="M24.4288 9.36278L22.6296 7.49371H24.4288H26.2237L24.4288 9.36278Z" fill="#00B9EF"/>
<path d="M26.2237 11.2362L24.4289 9.36278L26.2237 7.49371H26.3067V9.36278V11.2362H26.2237Z" fill="#67C7F2"/>
<path d="M22.5467 11.2362V9.36278V7.49371H22.6297L24.4289 9.36278L22.6297 11.2362H22.5467Z" fill="#67C7F2"/>
<path d="M7.52429 1.8778V0.0786133L9.39336 1.8778L7.52429 3.67699V1.8778Z" fill="#00B9EF"/>
<path d="M9.39337 1.8778L11.2668 0.0786133V1.8778V3.67699L9.39337 1.8778Z" fill="#00B9EF"/>
<path d="M7.52429 3.67697L9.39336 1.87778L11.2668 3.67697V3.75558H9.39336H7.52429V3.67697Z" fill="#67C7F2"/>
<path d="M7.52429 0H9.39336H11.2668V0.0786089L9.39336 1.8778L7.52429 0.0786089V0Z" fill="#67C7F2"/>
<path d="M3.76434 13.1053V11.3061L5.63778 13.1053L3.76434 14.9045V13.1053Z" fill="#00B9EF"/>
<path d="M5.63779 13.1053L7.50685 11.3061V13.1053V14.9045L5.63779 13.1053Z" fill="#00B9EF"/>
<path d="M3.76434 14.9045L5.63778 13.1053L7.50684 14.9045V14.9831H5.63778H3.76434V14.9045Z" fill="#67C7F2"/>
<path d="M3.76434 11.2275H5.63778H7.50684V11.3061L5.63778 13.1053L3.76434 11.3061V11.2275Z" fill="#67C7F2"/>
<path d="M7.52429 16.8478V15.0486L9.39336 16.8478L7.52429 18.647V16.8478Z" fill="#00B9EF"/>
<path d="M9.39337 16.8478L11.2668 15.0486V16.8478V18.647L9.39337 16.8478Z" fill="#00B9EF"/>
<path d="M7.52429 18.647L9.39336 16.8478L11.2668 18.647V18.7256H9.39336H7.52429V18.647Z" fill="#67C7F2"/>
<path d="M7.52429 14.97H9.39336H11.2668V15.0486L9.39336 16.8478L7.52429 15.0486V14.97Z" fill="#67C7F2"/>
<path d="M13.1533 14.9787H14.9525L13.1533 16.8478L11.3541 14.9743L13.1533 14.9787Z" fill="#00B9EF"/>
<path d="M13.1533 16.8478L14.9525 18.7168H13.1533H11.3541L13.1533 16.8478Z" fill="#00B9EF"/>
<path d="M11.3542 14.9743L13.1533 16.8478L11.3542 18.7168H11.2755V16.8478V14.9743H11.3542Z" fill="#67C7F2"/>
<path d="M15.0311 14.9787V16.8478V18.7169H14.9525L13.1533 16.8478L14.9525 14.9787H15.0311Z" fill="#67C7F2"/>
<path d="M15.0399 16.8478V15.0486L16.9133 16.8478L15.0399 18.647V16.8478Z" fill="#00B9EF"/>
<path d="M16.9133 16.8478L18.7824 15.0486V16.8478V18.647L16.9133 16.8478Z" fill="#00B9EF"/>
<path d="M15.0399 18.647L16.9133 16.8478L18.7823 18.647V18.7256H16.9133H15.0399V18.647Z" fill="#67C7F2"/>
<path d="M15.0399 14.97H16.9133H18.7823V15.0486L16.9133 16.8478L15.0399 15.0486V14.97Z" fill="#67C7F2"/>
<path d="M18.7998 13.1053V11.3061L20.6689 13.1053L18.7998 14.9045V13.1053Z" fill="#00B9EF"/>
<path d="M20.6689 13.1053L22.5423 11.3061V13.1053V14.9045L20.6689 13.1053Z" fill="#00B9EF"/>
<path d="M18.7998 14.9045L20.6689 13.1053L22.5423 14.9045V14.9831H20.6689H18.7998V14.9045Z" fill="#67C7F2"/>
<path d="M18.7998 11.2275H20.6689H22.5423V11.3061L20.6689 13.1053L18.7998 11.3061V11.2275Z" fill="#67C7F2"/>
<path d="M16.9133 7.49373H15.1141L16.9133 5.6203L18.7081 7.49373H16.9133Z" fill="#00B9EF"/>
<path d="M16.9133 5.62032L15.1141 3.75125H16.9133H18.7081L16.9133 5.62032Z" fill="#00B9EF"/>
<path d="M18.7081 7.49375L16.9133 5.62032L18.7081 3.75125H18.7911V5.62032V7.49375H18.7081Z" fill="#67C7F2"/>
<path d="M15.0311 7.49375V5.62032V3.75125H15.1141L16.9133 5.62032L15.1141 7.49375H15.0311Z" fill="#67C7F2"/>
<path d="M15.0399 1.8778V0.0786133L16.9133 1.8778L15.0399 3.67699V1.8778Z" fill="#00B9EF"/>
<path d="M16.9133 1.8778L18.7824 0.0786133V1.8778V3.67699L16.9133 1.8778Z" fill="#00B9EF"/>
<path d="M15.0399 3.67697L16.9133 1.87778L18.7823 3.67697V3.75558H16.9133H15.0399V3.67697Z" fill="#67C7F2"/>
<path d="M15.0399 0H16.9133H18.7823V0.0786089L16.9133 1.8778L15.0399 0.0786089V0Z" fill="#67C7F2"/>
</svg>
